<?xml version="1.0" standalone="yes"?>
<svg xmlns="http://www.w3.org/2000/svg" width="512" height="512">
<path style="fill:#55ac45; stroke:none;" d="M0 0L0 512L512 512L512 0L0 0z"/>
<path style="fill:#e7f3e5; stroke:none;" d="M145 101C148.959 102.661 153.74 102 158 102L182 102C178.041 100.339 173.26 101 169 101L145 101z"/>
<path style="fill:#96cc8c; stroke:none;" d="M182 101L183 102L182 101z"/>
<path style="fill:#e4f2e2; stroke:none;" d="M315 101C318.959 102.661 323.74 102 328 102L352 102C348.041 100.339 343.26 101 339 101L315 101z"/>
<path style="fill:#93ca89; stroke:none;" d="M352 101L353 102L352 101z"/>
<path style="fill:#8bc680; stroke:none;" d="M144 102L144 261C145.769 256.785 145 251.536 145 247L145 221L145 138L145 115C145 110.74 145.661 105.959 144 102z"/>
<path style="fill:#ffffff; stroke:none;" d="M145 102C145 167.984 145.781 234.021 144.996 300C144.759 319.958 143 340.025 143 360C143 382.007 140.035 404.011 140 426C139.991 431.66 136.754 443.82 140.028 448.566C142.876 452.695 148.676 449.932 152 448.135C161.385 443.06 170.711 437.824 180 432.576C182.885 430.945 188.107 429.178 189.307 425.787C190.397 422.706 188.788 418.092 188.197 415C186.806 407.73 185.876 400.354 185.05 393C181.931 365.219 178 336.967 178 309C183.998 315.865 189.84 322.157 198 326.51C222.741 339.709 259.877 336.278 283 321.301C298.328 311.373 310.06 294.67 317 278C322.392 296.242 318.039 320.914 339 331.084C357.26 339.944 379.312 330.613 387.89 313C389.819 309.04 393.634 301.756 392.223 297.214C391.297 294.234 387.134 292.65 384.637 294.647C382.397 296.438 381.402 299.771 379.61 301.985C374.351 308.48 366.663 310.911 360.105 304.786C358.333 303.131 356.939 301.151 355.836 299C353.176 293.814 353.377 288.6 352.715 283C351.003 268.538 352 253.562 352 239L352 102L315 102L315 206C315 228.127 316.415 251.959 305.124 272C283.373 310.607 217.802 312.159 195.337 273C182.134 249.986 182 221.757 182 196L182 102L145 102z"/>
<path style="fill:#e4f2e2; stroke:none;" d="M182 102L182 217C185.004 209.841 183 198.744 183 191L183 132C183 123.203 185.407 110.118 182 102z"/>
<path style="fill:#88c57d; stroke:none;" d="M314 102L314 229C315.552 225.301 315 220.983 315 217L315 197L315 131C315 122.466 317.306 109.879 314 102z"/>
<path style="fill:#e1f0de; stroke:none;" d="M352 102L352 282C353.875 277.531 353 271.809 353 267L353 236L353 142L353 116C353 111.464 353.769 106.215 352 102z"/>
<path style="fill:#7ec071; stroke:none;" d="M183 216L183 229C184.591 225.209 184.591 219.791 183 216z"/>
<path style="fill:#b9ddb2; stroke:none;" d="M183 229L183 232C183.696 230.446 183.696 230.554 183 229z"/>
<path style="fill:#b6dcaf; stroke:none;" d="M314 229L314 235C314.951 232.715 314.951 231.285 314 229z"/>
<path style="fill:#e4f2e2; stroke:none;" d="M183.333 232.667C183.278 232.722 183.222 233.778 183.667 233.333C183.722 233.278 183.778 232.222 183.333 232.667z"/>
<path style="fill:#8bc680; stroke:none;" d="M184 234L184 239C184.83 236.97 184.83 236.03 184 234z"/>
<path style="fill:#e1f0de; stroke:none;" d="M314 235L314 239C314.71 237.24 314.71 236.76 314 235z"/>
<path style="fill:#86c47a; stroke:none;" d="M313 238L313 244C313.951 241.715 313.951 240.285 313 238z"/>
<path style="fill:#d9ecd5; stroke:none;" d="M184.333 239.667C184.278 239.722 184.222 240.778 184.667 240.333C184.722 240.278 184.778 239.222 184.333 239.667z"/>
<path style="fill:#80c174; stroke:none;" d="M185 241L185 245C185.71 243.24 185.71 242.76 185 241z"/>
<path style="fill:#cce6c7; stroke:none;" d="M313 244L313 247C313.696 245.446 313.696 245.554 313 244z"/>
<path style="fill:#e1f0de; stroke:none;" d="M185.333 245.667C185.278 245.722 185.222 246.778 185.667 246.333C185.722 246.278 185.778 245.222 185.333 245.667z"/>
<path style="fill:#86c47a; stroke:none;" d="M186 247L186 250C186.696 248.446 186.696 248.554 186 247z"/>
<path style="fill:#80c174; stroke:none;" d="M312 247L312 250C312.696 248.446 312.696 248.554 312 247z"/>
<path style="fill:#cce6c7; stroke:none;" d="M312.333 250.667C312.278 250.722 312.222 251.778 312.667 251.333C312.722 251.278 312.778 250.222 312.333 250.667z"/>
<path style="fill:#83c277; stroke:none;" d="M187 251L187 254C187.696 252.446 187.696 252.554 187 251z"/>
<path style="fill:#80c174; stroke:none;" d="M311 252L311 255C311.696 253.446 311.696 253.554 311 252z"/>
<path style="fill:#88c57d; stroke:none;" d="M188 255L188 258C188.696 256.446 188.696 256.554 188 255z"/>
<path style="fill:#b6dcaf; stroke:none;" d="M311 255L312 256L311 255z"/>
<path style="fill:#80c174; stroke:none;" d="M310 256L310 259C310.696 257.446 310.696 257.554 310 256z"/>
<path style="fill:#86c47a; stroke:none;" d="M189 258L189 261C189.696 259.446 189.696 259.554 189 258z"/>
<path style="fill:#8bc680; stroke:none;" d="M309.333 260.667C309.278 260.722 309.222 261.778 309.667 261.333C309.722 261.278 309.778 260.222 309.333 260.667z"/>
<path style="fill:#b6dcaf; stroke:none;" d="M144 261L144 292C145.328 288.834 145 285.419 145 282C145 275.58 146.497 266.951 144 261z"/>
<path style="fill:#88c57d; stroke:none;" d="M190.333 261.667C190.278 261.722 190.222 262.778 190.667 262.333C190.722 262.278 190.778 261.222 190.333 261.667z"/>
<path style="fill:#c4e2be; stroke:none;" d="M190 263L191 264L190 263z"/>
<path style="fill:#80c174; stroke:none;" d="M191 263L191 266C191.696 264.446 191.696 264.554 191 263z"/>
<path style="fill:#96cc8c; stroke:none;" d="M308.333 263.667C308.278 263.722 308.222 264.778 308.667 264.333C308.722 264.278 308.778 263.222 308.333 263.667z"/>
<path style="fill:#83c277; stroke:none;" d="M307.333 265.667C307.278 265.722 307.222 266.778 307.667 266.333C307.722 266.278 307.778 265.222 307.333 265.667z"/>
<path style="fill:#96cc8c; stroke:none;" d="M192.333 266.667C192.278 266.722 192.222 267.778 192.667 267.333C192.722 267.278 192.778 266.222 192.333 266.667z"/>
<path style="fill:#7ec071; stroke:none;" d="M306 267L306 270C306.696 268.446 306.696 268.554 306 267z"/>
<path style="fill:#b6dcaf; stroke:none;" d="M307 267L308 268L307 267z"/>
<path style="fill:#96cc8c; stroke:none;" d="M193.333 268.667C193.278 268.722 193.222 269.778 193.667 269.333C193.722 269.278 193.778 268.222 193.333 268.667M194.333 270.667C194.278 270.722 194.222 271.778 194.667 271.333C194.722 271.278 194.778 270.222 194.333 270.667z"/>
<path style="fill:#a0d197; stroke:none;" d="M305.333 270.667C305.278 270.722 305.222 271.778 305.667 271.333C305.722 271.278 305.778 270.222 305.333 270.667z"/>
<path style="fill:#aed8a7; stroke:none;" d="M195 273L196 274L195 273z"/>
<path style="fill:#83c277; stroke:none;" d="M196.333 273.667C196.278 273.722 196.222 274.778 196.667 274.333C196.722 274.278 196.778 273.222 196.333 273.667z"/>
<path style="fill:#86c47a; stroke:none;" d="M303.333 273.667C303.278 273.722 303.222 274.778 303.667 274.333C303.722 274.278 303.778 273.222 303.333 273.667z"/>
<path style="fill:#b6dcaf; stroke:none;" d="M304 273L305 274L304 273z"/>
<path style="fill:#cee7ca; stroke:none;" d="M196 275L197 276L196 275z"/>
<path style="fill:#98cd8f; stroke:none;" d="M197.333 275.667C197.278 275.722 197.222 276.778 197.667 276.333C197.722 276.278 197.778 275.222 197.333 275.667z"/>
<path style="fill:#a0d197; stroke:none;" d="M302 276L303 277L302 276z"/>
<path style="fill:#e1f0de; stroke:none;" d="M317.333 278.667C317.278 278.722 317.222 279.778 317.667 279.333C317.722 279.278 317.778 278.222 317.333 278.667z"/>
<path style="fill:#aed8a7; stroke:none;" d="M199 279L200 280L199 279z"/>
<path style="fill:#acd6a4; stroke:none;" d="M300 279L301 280L300 279z"/>
<path style="fill:#a0d197; stroke:none;" d="M316 279L315 284C316.318 282.074 316.651 281.234 316 279z"/>
<path style="fill:#93ca89; stroke:none;" d="M299 280L300 281L299 280z"/>
<path style="fill:#bedfb8; stroke:none;" d="M317 280L317 284C317.71 282.24 317.71 281.759 317 280z"/>
<path style="fill:#86c47a; stroke:none;" d="M202 282L203 283L202 282z"/>
<path style="fill:#7bbf6f; stroke:none;" d="M353 282L353 290C354.161 287.23 354.161 284.77 353 282z"/>
<path style="fill:#cee7ca; stroke:none;" d="M297 283L298 284L297 283z"/>
<path style="fill:#bedfb8; stroke:none;" d="M314 283L315 284L314 283z"/>
<path style="fill:#cee7ca; stroke:none;" d="M296 284L297 285L296 284z"/>
<path style="fill:#76bc69; stroke:none;" d="M314.333 284.667C314.278 284.722 314.222 285.778 314.667 285.333C314.722 285.278 314.778 284.222 314.333 284.667z"/>
<path style="fill:#7ec071; stroke:none;" d="M317 284L317 289C317.83 286.97 317.83 286.03 317 284z"/>
<path style="fill:#cee7ca; stroke:none;" d="M295 285L296 286L295 285z"/>
<path style="fill:#b4daad; stroke:none;" d="M313 285L314 286L313 285z"/>
<path style="fill:#86c47a; stroke:none;" d="M206 286L207 287L206 286z"/>
<path style="fill:#cee7ca; stroke:none;" d="M294 286L295 287L294 286z"/>
<path style="fill:#78bd6c; stroke:none;" d="M313 286C312.014 287.479 312 287.203 312 289C313.289 287.557 313.401 287.766 313 286z"/>
<path style="fill:#76bc69; stroke:none;" d="M207 287C208.223 288.195 208.42 288.316 210 289C208.777 287.805 208.58 287.684 207 287z"/>
<path style="fill:#93ca89; stroke:none;" d="M291 288L292 289L291 288z"/>
<path style="fill:#b9ddb2; stroke:none;" d="M209 289L210 290L209 289z"/>
<path style="fill:#acd6a4; stroke:none;" d="M290 289L291 290L290 289z"/>
<path style="fill:#73bb66; stroke:none;" d="M311.333 289.667C311.278 289.722 311.222 290.778 311.667 290.333C311.722 290.278 311.778 289.222 311.333 289.667z"/>
<path style="fill:#d4ead0; stroke:none;" d="M318.333 289.667C318.278 289.722 318.222 290.778 318.667 290.333C318.722 290.278 318.778 289.222 318.333 289.667z"/>
<path style="fill:#70b962; stroke:none;" d="M211.667 290.333C211.222 290.778 212.278 290.722 212.333 290.667C212.778 290.222 211.722 290.278 211.667 290.333z"/>
<path style="fill:#cce6c7; stroke:none;" d="M353 290L353 293C353.696 291.446 353.696 291.554 353 290z"/>
<path style="fill:#aed8a7; stroke:none;" d="M212 291L213 292L212 291z"/>
<path style="fill:#a0d197; stroke:none;" d="M287 291L288 292L287 291z"/>
<path style="fill:#9bce92; stroke:none;" d="M318.333 291.667C318.278 291.722 318.222 292.778 318.667 292.333C318.722 292.278 318.778 291.222 318.333 291.667z"/>
<path style="fill:#e1f0de; stroke:none;" d="M144 292L144 307C145.74 302.852 145.74 296.148 144 292z"/>
<path style="fill:#76bc69; stroke:none;" d="M214.667 292.333C214.222 292.778 215.278 292.722 215.333 292.667C215.778 292.222 214.722 292.278 214.667 292.333z"/>
<path style="fill:#88c57d; stroke:none;" d="M284.667 292.333C284.222 292.778 285.278 292.722 285.333 292.667C285.778 292.222 284.722 292.278 284.667 292.333z"/>
<path style="fill:#b4daad; stroke:none;" d="M309 292L310 293L309 292z"/>
<path style="fill:#7ec071; stroke:none;" d="M354 292L354 295C354.696 293.446 354.696 293.554 354 292z"/>
<path style="fill:#8bc680; stroke:none;" d="M385.667 292.333C385.222 292.778 386.278 292.722 386.333 292.667C386.778 292.222 385.722 292.278 385.667 292.333z"/>
<path style="fill:#cee7ca; stroke:none;" d="M215 293L216 294L215 293z"/>
<path style="fill:#73bb66; stroke:none;" d="M216 293C217.458 294.081 218.248 294.436 220 295C218.542 293.919 217.752 293.564 216 293z"/>
<path style="fill:#83c277; stroke:none;" d="M280 294C281.659 294.406 282.242 294.309 284 294C282.341 293.594 281.758 293.691 280 294z"/>
<path style="fill:#c1e1bb; stroke:none;" d="M284 293L285 294L284 293z"/>
<path style="fill:#7ec071; stroke:none;" d="M318 293L318 296C318.696 294.446 318.696 294.554 318 293z"/>
<path style="fill:#86c47a; stroke:none;" d="M384 293L385 294L384 293z"/>
<path style="fill:#b1d9aa; stroke:none;" d="M388 293L389 294L388 293z"/>
<path style="fill:#cce6c7; stroke:none;" d="M217 294L218 295L217 294z"/>
<path style="fill:#b9ddb2; stroke:none;" d="M282 294L283 295L282 294z"/>
<path style="fill:#70b962; stroke:none;" d="M308.333 294.667C308.278 294.722 308.222 295.778 308.667 295.333C308.722 295.278 308.778 294.222 308.333 294.667z"/>
<path style="fill:#c4e2be; stroke:none;" d="M390 294L391 295L390 294z"/>
<path style="fill:#cee7ca; stroke:none;" d="M219 295L220 296L219 295z"/>
<path style="fill:#78bd6c; stroke:none;" d="M220.667 295.333C220.222 295.778 221.278 295.722 221.333 295.667C221.778 295.222 220.722 295.278 220.667 295.333z"/>
<path style="fill:#86c47a; stroke:none;" d="M278.667 295.333C278.222 295.778 279.278 295.722 279.333 295.667C279.778 295.222 278.722 295.278 278.667 295.333z"/>
<path style="fill:#cce6c7; stroke:none;" d="M280 295L281 296L280 295z"/>
<path style="fill:#c1e1bb; stroke:none;" d="M307 295L308 296L307 295z"/>
<path style="fill:#d6ebd3; stroke:none;" d="M354.333 295.667C354.278 295.722 354.222 296.778 354.667 296.333C354.722 296.278 354.778 295.222 354.333 295.667z"/>
<path style="fill:#8ec883; stroke:none;" d="M383 295L384 296L383 295z"/>
<path style="fill:#b1d9aa; stroke:none;" d="M392 295L393 296L392 295z"/>
<path style="fill:#83c277; stroke:none;" d="M222 296C223.248 296.685 223.549 296.749 225 297C223.752 296.315 223.452 296.251 222 296z"/>
<path style="fill:#80c174; stroke:none;" d="M272 297C274.163 297.676 275.732 297.387 278 297C275.836 296.324 274.268 296.613 272 297z"/>
<path style="fill:#bedfb8; stroke:none;" d="M319 296L319 299C319.696 297.446 319.696 297.554 319 296z"/>
<path style="fill:#80c174; stroke:none;" d="M355 296L355 299C355.696 297.446 355.696 297.554 355 296z"/>
<path style="fill:#90c986; stroke:none;" d="M382.333 296.667C382.278 296.722 382.222 297.778 382.667 297.333C382.722 297.278 382.778 296.222 382.333 296.667z"/>
<path style="fill:#80c174; stroke:none;" d="M225 297C226.248 297.685 226.548 297.749 228 298C226.752 297.315 226.452 297.251 225 297z"/>
<path style="fill:#cee7ca; stroke:none;" d="M275 297L276 298L275 297z"/>
<path style="fill:#70b962; stroke:none;" d="M306.333 297.667C306.278 297.722 306.222 298.778 306.667 298.333C306.722 298.278 306.778 297.222 306.333 297.667z"/>
<path style="fill:#73bb66; stroke:none;" d="M228 298C229.506 298.683 230.315 298.826 232 299C230.494 298.317 229.685 298.174 228 298z"/>
<path style="fill:#86c47a; stroke:none;" d="M269 298C270.248 298.685 270.548 298.749 272 299C270.752 298.315 270.452 298.251 269 298z"/>
<path style="fill:#c1e1bb; stroke:none;" d="M305 298L306 299L305 298z"/>
<path style="fill:#96cc8c; stroke:none;" d="M381.333 298.667C381.278 298.722 381.222 299.778 381.667 299.333C381.722 299.278 381.778 298.222 381.333 298.667z"/>
<path style="fill:#7ec071; stroke:none;" d="M232 299C233.769 299.779 235.036 299.912 237 300C235.231 299.221 233.964 299.088 232 299M263 299C264.506 299.683 265.315 299.826 267 300C265.494 299.317 264.685 299.174 263 299z"/>
<path style="fill:#deefdb; stroke:none;" d="M267.667 299.333C267.222 299.778 268.278 299.722 268.333 299.667C268.778 299.222 267.722 299.278 267.667 299.333z"/>
<path style="fill:#7bbf6f; stroke:none;" d="M319 299L319 302C319.696 300.446 319.696 300.554 319 299z"/>
<path style="fill:#96cc8c; stroke:none;" d="M356.333 299.667C356.278 299.722 356.222 300.778 356.667 300.333C356.722 300.278 356.778 299.222 356.333 299.667z"/>
<path style="fill:#a6d39d; stroke:none;" d="M392.333 299.667C392.278 299.722 392.222 300.778 392.667 300.333C392.722 300.278 392.778 299.222 392.333 299.667z"/>
<path style="fill:#deefdb; stroke:none;" d="M236.667 300.333C236.222 300.778 237.278 300.722 237.333 300.667C237.778 300.222 236.722 300.278 236.667 300.333z"/>
<path style="fill:#b4daad; stroke:none;" d="M238.667 300.333C238.222 300.778 239.278 300.722 239.333 300.667C239.778 300.222 238.722 300.278 238.667 300.333z"/>
<path style="fill:#78bd6c; stroke:none;" d="M240 300C242.89 301.213 245.874 300.998 249 301C246.11 299.787 243.126 300.002 240 300z"/>
<path style="fill:#83c277; stroke:none;" d="M251 300C253.89 301.213 256.874 300.998 260 301C257.11 299.787 254.126 300.002 251 300z"/>
<path style="fill:#b6dcaf; stroke:none;" d="M260.667 300.333C260.222 300.778 261.278 300.722 261.333 300.667C261.778 300.222 260.722 300.278 260.667 300.333z"/>
<path style="fill:#e1f0de; stroke:none;" d="M248 301C249.506 301.683 250.315 301.826 252 302C250.494 301.317 249.685 301.174 248 301z"/>
<path style="fill:#a8d5a0; stroke:none;" d="M303 301L304 302L303 301z"/>
<path style="fill:#bedfb8; stroke:none;" d="M320.333 301.667C320.278 301.722 320.222 302.778 320.667 302.333C320.722 302.278 320.778 301.222 320.333 301.667z"/>
<path style="fill:#c4e2be; stroke:none;" d="M380 301L381 302L380 301z"/>
<path style="fill:#78bd6c; stroke:none;" d="M392.333 301.667C392.278 301.722 392.222 302.778 392.667 302.333C392.722 302.278 392.778 301.222 392.333 301.667z"/>
<path style="fill:#c9e5c4; stroke:none;" d="M302 302L303 303L302 302z"/>
<path style="fill:#a3d29a; stroke:none;" d="M357 302L358 303L357 302z"/>
<path style="fill:#a0d197; stroke:none;" d="M379 302L380 303L379 302z"/>
<path style="fill:#7ec071; stroke:none;" d="M320 303L320 306C320.696 304.446 320.696 304.554 320 303z"/>
<path style="fill:#8bc680; stroke:none;" d="M358 303L359 304L358 303z"/>
<path style="fill:#93ca89; stroke:none;" d="M378 303L379 304L378 303z"/>
<path style="fill:#9bce92; stroke:none;" d="M391.333 303.667C391.278 303.722 391.222 304.778 391.667 304.333C391.722 304.278 391.778 303.222 391.333 303.667z"/>
<path style="fill:#6db85f; stroke:none;" d="M301 304C300.014 305.479 300 305.203 300 307C301.289 305.557 301.401 305.766 301 304z"/>
<path style="fill:#86c47a; stroke:none;" d="M359 304L360 305L359 304z"/>
<path style="fill:#8bc680; stroke:none;" d="M377 304L378 305L377 304z"/>
<path style="fill:#88c57d; stroke:none;" d="M360 305L361 306L360 305z"/>
<path style="fill:#98cd8f; stroke:none;" d="M376 305L377 306L376 305z"/>
<path style="fill:#a8d5a0; stroke:none;" d="M299 306L300 307L299 306z"/>
<path style="fill:#bcdeb5; stroke:none;" d="M321 306L322 307L321 306z"/>
<path style="fill:#7bbf6f; stroke:none;" d="M361.667 306.333C361.222 306.778 362.278 306.722 362.333 306.667C362.778 306.222 361.722 306.278 361.667 306.333z"/>
<path style="fill:#bcdeb5; stroke:none;" d="M375 306L376 307L375 306z"/>
<path style="fill:#86c47a; stroke:none;" d="M143 307L143 329C145.219 323.713 145.219 312.287 143 307z"/>
<path style="fill:#b6dcaf; stroke:none;" d="M298 307L299 308L298 307z"/>
<path style="fill:#78bd6c; stroke:none;" d="M321.333 307.667C321.278 307.722 321.222 308.778 321.667 308.333C321.722 308.278 321.778 307.222 321.333 307.667z"/>
<path style="fill:#80c174; stroke:none;" d="M363.667 307.333C363.222 307.778 364.278 307.722 364.333 307.667C364.778 307.222 363.722 307.278 363.667 307.333z"/>
<path style="fill:#86c47a; stroke:none;" d="M371 307C372.248 307.685 372.548 307.749 374 308C372.752 307.315 372.452 307.251 371 307z"/>
<path style="fill:#78bd6c; stroke:none;" d="M390.333 307.667C390.278 307.722 390.222 308.778 390.667 308.333C390.722 308.278 390.778 307.222 390.333 307.667z"/>
<path style="fill:#c9e5c4; stroke:none;" d="M297 308L298 309L297 308z"/>
<path style="fill:#b6dcaf; stroke:none;" d="M365 308C367.052 308.874 368.747 308.953 371 309C368.948 308.126 367.253 308.047 365 308z"/>
<path style="fill:#a0d197; stroke:none;" d="M178 309L178 315C179.67 313.33 178.697 312.424 181 313C180.064 311.051 179.608 310.45 178 309z"/>
<path style="fill:#cce6c7; stroke:none;" d="M296 309L297 310L296 309z"/>
<path style="fill:#c9e5c4; stroke:none;" d="M322 309L323 310L322 309z"/>
<path style="fill:#bcdeb5; stroke:none;" d="M389 309L390 310L389 309z"/>
<path style="fill:#cce6c7; stroke:none;" d="M295 310L296 311L295 310z"/>
<path style="fill:#78bd6c; stroke:none;" d="M322.333 310.667C322.278 310.722 322.222 311.778 322.667 311.333C322.722 311.278 322.778 310.222 322.333 310.667z"/>
<path style="fill:#cce6c7; stroke:none;" d="M294 311L295 312L294 311z"/>
<path style="fill:#c9e5c4; stroke:none;" d="M388 311L389 312L388 311z"/>
<path style="fill:#cce6c7; stroke:none;" d="M293 312L294 313L293 312z"/>
<path style="fill:#bcdeb5; stroke:none;" d="M323 312L324 313L323 312z"/>
<path style="fill:#70b962; stroke:none;" d="M388.333 312.667C388.278 312.722 388.222 313.778 388.667 313.333C388.722 313.278 388.778 312.222 388.333 312.667z"/>
<path style="fill:#88c57d; stroke:none;" d="M181 313L182 314L181 313z"/>
<path style="fill:#c9e5c4; stroke:none;" d="M292 313L293 314L292 313z"/>
<path style="fill:#70b962; stroke:none;" d="M323.333 313.667C323.278 313.722 323.222 314.778 323.667 314.333C323.722 314.278 323.778 313.222 323.333 313.667z"/>
<path style="fill:#6ab65c; stroke:none;" d="M182 314C183.482 317.104 184.896 318.518 188 320C186.205 317.492 184.508 315.795 182 314z"/>
<path style="fill:#c9e5c4; stroke:none;" d="M291 314L292 315L291 314z"/>
<path style="fill:#b4daad; stroke:none;" d="M178 315L178 319C178.71 317.24 178.71 316.76 178 315z"/>
<path style="fill:#a8d5a0; stroke:none;" d="M290 315L291 316L290 315z"/>
<path style="fill:#73bb66; stroke:none;" d="M324.333 315.667C324.278 315.722 324.222 316.778 324.667 316.333C324.722 316.278 324.778 315.222 324.333 315.667z"/>
<path style="fill:#bedfb8; stroke:none;" d="M386 315L387 316L386 315z"/>
<path style="fill:#6ab65c; stroke:none;" d="M288 318C289.58 317.316 289.777 317.195 291 316C289.42 316.684 289.223 316.805 288 318z"/>
<path style="fill:#73bb66; stroke:none;" d="M386 316C385.014 317.479 385 317.203 385 319C386.289 317.557 386.401 317.766 386 316M325.333 317.667C325.278 317.722 325.222 318.778 325.667 318.333C325.722 318.278 325.778 317.222 325.333 317.667z"/>
<path style="fill:#deefdb; stroke:none;" d="M178 319L178 323C178.71 321.24 178.71 320.759 178 319z"/>
<path style="fill:#a8d5a0; stroke:none;" d="M285 319L286 320L285 319z"/>
<path style="fill:#bedfb8; stroke:none;" d="M327 320L328 321L327 320z"/>
<path style="fill:#c1e1bb; stroke:none;" d="M190 321L191 322L190 321z"/>
<path style="fill:#b4daad; stroke:none;" d="M282 321L283 322L282 321z"/>
<path style="fill:#a6d39d; stroke:none;" d="M382 321L383 322L382 321z"/>
<path style="fill:#7ec071; stroke:none;" d="M179 322L179 330C180.161 327.23 180.161 324.77 179 322z"/>
<path style="fill:#9ecf95; stroke:none;" d="M191 322L192 323L191 322z"/>
<path style="fill:#bcdeb5; stroke:none;" d="M381 322L382 323L381 322z"/>
<path style="fill:#76bc69; stroke:none;" d="M279.667 323.333C279.222 323.778 280.278 323.722 280.333 323.667C280.778 323.222 279.722 323.278 279.667 323.333z"/>
<path style="fill:#a6d39d; stroke:none;" d="M329 323L330 324L329 323z"/>
<path style="fill:#c6e3c1; stroke:none;" d="M380 323L381 324L380 323z"/>
<path style="fill:#9ecf95; stroke:none;" d="M194 324L195 325L194 324z"/>
<path style="fill:#b4daad; stroke:none;" d="M277 324L278 325L277 324z"/>
<path style="fill:#c6e3c1; stroke:none;" d="M330 324L331 325L330 324M379 324L380 325L379 324z"/>
<path style="fill:#c9e5c4; stroke:none;" d="M196 325L197 326L196 325z"/>
<path style="fill:#b4daad; stroke:none;" d="M275 325L276 326L275 325z"/>
<path style="fill:#c9e5c4; stroke:none;" d="M331 325L332 326L331 325z"/>
<path style="fill:#bcdeb5; stroke:none;" d="M378 325L379 326L378 325z"/>
<path style="fill:#86c47a; stroke:none;" d="M196.667 326.333C196.222 326.778 197.278 326.722 197.333 326.667C197.778 326.222 196.722 326.278 196.667 326.333z"/>
<path style="fill:#b4daad; stroke:none;" d="M273 326L274 327L273 326z"/>
<path style="fill:#c9e5c4; stroke:none;" d="M332 326L333 327L332 326z"/>
<path style="fill:#a6d39d; stroke:none;" d="M377 326L378 327L377 326z"/>
<path style="fill:#90c986; stroke:none;" d="M198.667 327.333C198.222 327.778 199.278 327.722 199.333 327.667C199.778 327.222 198.722 327.278 198.667 327.333z"/>
<path style="fill:#7ec071; stroke:none;" d="M271 327C272.248 327.685 272.548 327.749 274 328C272.752 327.315 272.452 327.251 271 327z"/>
<path style="fill:#c6e3c1; stroke:none;" d="M333 327L334 328L333 327z"/>
<path style="fill:#83c277; stroke:none;" d="M200.667 328.333C200.222 328.778 201.278 328.722 201.333 328.667C201.778 328.222 200.722 328.278 200.667 328.333z"/>
<path style="fill:#c9e5c4; stroke:none;" d="M202 328L203 329L202 328M268 328L269 329L268 328z"/>
<path style="fill:#76bc69; stroke:none;" d="M269.667 328.333C269.222 328.778 270.278 328.722 270.333 328.667C270.778 328.222 269.722 328.278 269.667 328.333z"/>
<path style="fill:#a6d39d; stroke:none;" d="M334 328L335 329L334 328z"/>
<path style="fill:#b6dcaf; stroke:none;" d="M143 329L143 338C144.256 335.006 144.256 331.994 143 329z"/>
<path style="fill:#7ec071; stroke:none;" d="M202 329C203.248 329.685 203.548 329.749 205 330C203.752 329.315 203.452 329.251 202 329M266 329C267.248 329.685 267.548 329.749 269 330C267.752 329.315 267.452 329.251 266 329z"/>
<path style="fill:#8bc680; stroke:none;" d="M335 329L336 330L335 329z"/>
<path style="fill:#70b962; stroke:none;" d="M373.667 329.333C373.222 329.778 374.278 329.722 374.333 329.667C374.778 329.222 373.722 329.278 373.667 329.333z"/>
<path style="fill:#b4daad; stroke:none;" d="M179 330L179 333C179.696 331.446 179.696 331.554 179 330z"/>
<path style="fill:#83c277; stroke:none;" d="M205 330C206.248 330.685 206.548 330.749 208 331C206.752 330.315 206.452 330.251 205 330z"/>
<path style="fill:#7ec071; stroke:none;" d="M263 330C264.248 330.685 264.548 330.749 266 331C264.752 330.315 264.452 330.251 263 330z"/>
<path style="fill:#a6d39d; stroke:none;" d="M337 330L338 331L337 330M371 330L372 331L371 330z"/>
<path style="fill:#80c174; stroke:none;" d="M208 331C209.248 331.685 209.549 331.749 211 332C209.752 331.315 209.452 331.251 208 331z"/>
<path style="fill:#86c47a; stroke:none;" d="M259 331C260.248 331.685 260.549 331.749 262 332C260.752 331.315 260.452 331.251 259 331z"/>
<path style="fill:#a6d39d; stroke:none;" d="M339 331L340 332L339 331z"/>
<path style="fill:#78bd6c; stroke:none;" d="M369.667 331.333C369.222 331.778 370.278 331.722 370.333 331.667C370.778 331.222 369.722 331.278 369.667 331.333z"/>
<path style="fill:#80c174; stroke:none;" d="M212 332C213.248 332.685 213.548 332.749 215 333C213.752 332.315 213.452 332.251 212 332z"/>
<path style="fill:#deefdb; stroke:none;" d="M215.667 332.333C215.222 332.778 216.278 332.722 216.333 332.667C216.778 332.222 215.722 332.278 215.667 332.333z"/>
<path style="fill:#c9e5c4; stroke:none;" d="M253.667 332.333C253.222 332.778 254.278 332.722 254.333 332.667C254.778 332.222 253.722 332.278 253.667 332.333z"/>
<path style="fill:#83c277; stroke:none;" d="M255 332C256.506 332.683 257.315 332.826 259 333C257.494 332.317 256.685 332.174 255 332z"/>
<path style="fill:#8ec883; stroke:none;" d="M340.667 332.333C340.222 332.778 341.278 332.722 341.333 332.667C341.778 332.222 340.722 332.278 340.667 332.333z"/>
<path style="fill:#c6e3c1; stroke:none;" d="M342 332L343 333L342 332z"/>
<path style="fill:#bcdeb5; stroke:none;" d="M366 332L367 333L366 332z"/>
<path style="fill:#73bb66; stroke:none;" d="M367.667 332.333C367.222 332.778 368.278 332.722 368.333 332.667C368.778 332.222 367.722 332.278 367.667 332.333z"/>
<path style="fill:#deefdb; stroke:none;" d="M179 333L179 337C179.71 335.24 179.71 334.76 179 333z"/>
<path style="fill:#86c47a; stroke:none;" d="M216 333C217.506 333.683 218.315 333.826 220 334C218.494 333.317 217.685 333.174 216 333z"/>
<path style="fill:#b6dcaf; stroke:none;" d="M220.667 333.333C220.222 333.778 221.278 333.722 221.333 333.667C221.778 333.222 220.722 333.278 220.667 333.333z"/>
<path style="fill:#e1f0de; stroke:none;" d="M222.667 333.333C222.222 333.778 223.278 333.722 223.333 333.667C223.778 333.222 222.722 333.278 222.667 333.333z"/>
<path style="fill:#dceed8; stroke:none;" d="M246.667 333.333C246.222 333.778 247.278 333.722 247.333 333.667C247.778 333.222 246.722 333.278 246.667 333.333z"/>
<path style="fill:#b1d9aa; stroke:none;" d="M248.667 333.333C248.222 333.778 249.278 333.722 249.333 333.667C249.778 333.222 248.722 333.278 248.667 333.333z"/>
<path style="fill:#73bb66; stroke:none;" d="M250 333C251.506 333.683 252.315 333.826 254 334C252.494 333.317 251.685 333.174 250 333z"/>
<path style="fill:#80c174; stroke:none;" d="M343 333C344.248 333.685 344.548 333.749 346 334C344.752 333.315 344.452 333.251 343 333z"/>
<path style="fill:#a3d29a; stroke:none;" d="M362.667 333.333C362.222 333.778 363.278 333.722 363.333 333.667C363.778 333.222 362.722 333.278 362.667 333.333z"/>
<path style="fill:#73bb66; stroke:none;" d="M364.667 333.333C364.222 333.778 365.278 333.722 365.333 333.667C365.778 333.222 364.722 333.278 364.667 333.333z"/>
<path style="fill:#86c47a; stroke:none;" d="M224 334C230.202 336.603 239.298 335 246 335C239.798 332.397 230.702 334 224 334z"/>
<path style="fill:#83c277; stroke:none;" d="M347 334C351.471 335.876 357.183 335 362 335C357.529 333.124 351.817 334 347 334z"/>
<path style="fill:#80c174; stroke:none;" d="M180 336L180 343C181.059 340.466 181.059 338.534 180 336z"/>
<path style="fill:#e1f0de; stroke:none;" d="M143 338L143 346C144.161 343.23 144.161 340.77 143 338z"/>
<path style="fill:#b4daad; stroke:none;" d="M180 343L180 346C180.696 344.446 180.696 344.554 180 343z"/>
<path style="fill:#7bbf6f; stroke:none;" d="M142 345L142 360C143.74 355.852 143.74 349.148 142 345z"/>
<path style="fill:#deefdb; stroke:none;" d="M180 346L180 349C180.696 347.446 180.696 347.554 180 346z"/>
<path style="fill:#86c47a; stroke:none;" d="M181 349L181 355C181.951 352.715 181.951 351.285 181 349z"/>
<path style="fill:#b4daad; stroke:none;" d="M181 355L181 358C181.696 356.446 181.696 356.554 181 355z"/>
<path style="fill:#e1f0de; stroke:none;" d="M181.333 358.667C181.278 358.722 181.222 359.778 181.667 359.333C181.722 359.278 181.778 358.222 181.333 358.667z"/>
<path style="fill:#b4daad; stroke:none;" d="M142 360L142 367C143.059 364.466 143.059 362.534 142 360z"/>
<path style="fill:#86c47a; stroke:none;" d="M182 360L182 366C182.951 363.715 182.951 362.285 182 360z"/>
<path style="fill:#b4daad; stroke:none;" d="M182.333 366.667C182.278 366.722 182.222 367.778 182.667 367.333C182.722 367.278 182.778 366.222 182.333 366.667z"/>
<path style="fill:#e1f0de; stroke:none;" d="M142 367L142 373C142.951 370.715 142.951 369.285 142 367z"/>
<path style="fill:#deefdb; stroke:none;" d="M182 368L182 371C182.696 369.446 182.696 369.554 182 368z"/>
<path style="fill:#80c174; stroke:none;" d="M183 370L183 376C183.951 373.715 183.951 372.285 183 370z"/>
<path style="fill:#7bbf6f; stroke:none;" d="M141 372L141 385C142.591 381.209 142.591 375.791 141 372z"/>
<path style="fill:#b6dcaf; stroke:none;" d="M183.333 376.667C183.278 376.722 183.222 377.778 183.667 377.333C183.722 377.278 183.778 376.222 183.333 376.667z"/>
<path style="fill:#deefdb; stroke:none;" d="M183.333 378.667C183.278 378.722 183.222 379.778 183.667 379.333C183.722 379.278 183.778 378.222 183.333 378.667z"/>
<path style="fill:#83c277; stroke:none;" d="M184 380L184 385C184.83 382.969 184.83 382.03 184 380z"/>
<path style="fill:#b4daad; stroke:none;" d="M141 385L141 391C141.951 388.715 141.951 387.285 141 385M184.333 385.667C184.278 385.722 184.222 386.778 184.667 386.333C184.722 386.278 184.778 385.222 184.333 385.667z"/>
<path style="fill:#deefdb; stroke:none;" d="M184.333 387.667C184.278 387.722 184.222 388.778 184.667 388.333C184.722 388.278 184.778 387.222 184.333 387.667z"/>
<path style="fill:#7bbf6f; stroke:none;" d="M185 389L185 393C185.71 391.241 185.71 390.759 185 389z"/>
<path style="fill:#deefdb; stroke:none;" d="M141 391L141 396C141.83 393.969 141.83 393.03 141 391z"/>
<path style="fill:#b4daad; stroke:none;" d="M185.333 393.667C185.278 393.722 185.222 394.778 185.667 394.333C185.722 394.278 185.778 393.222 185.333 393.667z"/>
<path style="fill:#deefdb; stroke:none;" d="M185.333 395.667C185.278 395.722 185.222 396.778 185.667 396.333C185.722 396.278 185.778 395.222 185.333 395.667z"/>
<path style="fill:#86c47a; stroke:none;" d="M140 396L140 407C141.431 403.59 141.431 399.41 140 396z"/>
<path style="fill:#7bbf6f; stroke:none;" d="M186 397L186 401C186.71 399.241 186.71 398.759 186 397z"/>
<path style="fill:#b4daad; stroke:none;" d="M186.333 401.667C186.278 401.722 186.222 402.778 186.667 402.333C186.722 402.278 186.778 401.222 186.333 401.667z"/>
<path style="fill:#deefdb; stroke:none;" d="M186.333 403.667C186.278 403.722 186.222 404.778 186.667 404.333C186.722 404.278 186.778 403.222 186.333 403.667z"/>
<path style="fill:#78bd6c; stroke:none;" d="M187 404L187 408C187.71 406.241 187.71 405.759 187 404z"/>
<path style="fill:#b6dcaf; stroke:none;" d="M140 407L140 413C140.951 410.715 140.951 409.285 140 407z"/>
<path style="fill:#b4daad; stroke:none;" d="M187.333 408.667C187.278 408.722 187.222 409.778 187.667 409.333C187.722 409.278 187.778 408.222 187.333 408.667z"/>
<path style="fill:#deefdb; stroke:none;" d="M187.333 410.667C187.278 410.722 187.222 411.778 187.667 411.333C187.722 411.278 187.778 410.222 187.333 410.667z"/>
<path style="fill:#86c47a; stroke:none;" d="M188 411L188 415C188.71 413.241 188.71 412.759 188 411z"/>
<path style="fill:#deefdb; stroke:none;" d="M140 413L140 418C140.83 415.969 140.83 415.03 140 413z"/>
<path style="fill:#bedfb8; stroke:none;" d="M188.333 415.667C188.278 415.722 188.222 416.778 188.667 416.333C188.722 416.278 188.778 415.222 188.333 415.667z"/>
<path style="fill:#7ec071; stroke:none;" d="M139 417L139 429C140.512 425.396 140.512 420.604 139 417M189 418L189 421C189.696 419.446 189.696 419.554 189 418z"/>
<path style="fill:#c9e5c4; stroke:none;" d="M189.333 421.667C189.278 421.722 189.222 422.778 189.667 422.333C189.722 422.278 189.778 421.222 189.333 421.667z"/>
<path style="fill:#70b962; stroke:none;" d="M190 423L190 426C190.696 424.446 190.696 424.554 190 423z"/>
<path style="fill:#b6dcaf; stroke:none;" d="M139 429L139 434C139.83 431.969 139.83 431.03 139 429z"/>
<path style="fill:#a8d5a0; stroke:none;" d="M185 429L186 430L185 429z"/>
<path style="fill:#b6dcaf; stroke:none;" d="M183 430L184 431L183 430z"/>
<path style="fill:#cce6c7; stroke:none;" d="M181 431L182 432L181 431z"/>
<path style="fill:#70b962; stroke:none;" d="M180.667 432.333C180.222 432.778 181.278 432.722 181.333 432.667C181.778 432.222 180.722 432.278 180.667 432.333z"/>
<path style="fill:#76bc69; stroke:none;" d="M178.667 433.333C178.222 433.778 179.278 433.722 179.333 433.667C179.778 433.222 178.722 433.278 178.667 433.333z"/>
<path style="fill:#deefdb; stroke:none;" d="M139 434L139 439C139.83 436.969 139.83 436.03 139 434z"/>
<path style="fill:#68b559; stroke:none;" d="M175 436C176.58 435.316 176.777 435.195 178 434C176.42 434.684 176.223 434.805 175 436z"/>
<path style="fill:#b6dcaf; stroke:none;" d="M174 435L175 436L174 435z"/>
<path style="fill:#cce6c7; stroke:none;" d="M172 436L173 437L172 436z"/>
<path style="fill:#70b962; stroke:none;" d="M171.667 437.333C171.222 437.778 172.278 437.722 172.333 437.667C172.778 437.222 171.722 437.278 171.667 437.333z"/>
<path style="fill:#80c174; stroke:none;" d="M138 438L138 448C139.346 444.793 139.346 441.207 138 438z"/>
<path style="fill:#76bc69; stroke:none;" d="M169.667 438.333C169.222 438.778 170.278 438.722 170.333 438.667C170.778 438.222 169.722 438.278 169.667 438.333z"/>
<path style="fill:#68b559; stroke:none;" d="M166 441C167.58 440.316 167.777 440.195 169 439C167.42 439.684 167.223 439.805 166 441z"/>
<path style="fill:#b6dcaf; stroke:none;" d="M165 440L166 441L165 440z"/>
<path style="fill:#cce6c7; stroke:none;" d="M163 441L164 442L163 441z"/>
<path style="fill:#70b962; stroke:none;" d="M162.667 442.333C162.222 442.778 163.278 442.722 163.333 442.667C163.778 442.222 162.722 442.278 162.667 442.333z"/>
<path style="fill:#76bc69; stroke:none;" d="M160.667 443.333C160.222 443.778 161.278 443.722 161.333 443.667C161.778 443.222 160.722 443.278 160.667 443.333z"/>
<path style="fill:#68b559; stroke:none;" d="M157 446C158.58 445.316 158.777 445.195 160 444C158.42 444.684 158.223 444.805 157 446z"/>
<path style="fill:#b6dcaf; stroke:none;" d="M156 445L157 446L156 445z"/>
<path style="fill:#cce6c7; stroke:none;" d="M154 446L155 447L154 446z"/>
<path style="fill:#70b962; stroke:none;" d="M153.667 447.333C153.222 447.778 154.278 447.722 154.333 447.667C154.778 447.222 153.722 447.278 153.667 447.333z"/>
<path style="fill:#76bc69; stroke:none;" d="M151.667 448.333C151.222 448.778 152.278 448.722 152.333 448.667C152.778 448.222 151.722 448.278 151.667 448.333z"/>
<path style="fill:#b1d9aa; stroke:none;" d="M139 449L140 450L139 449z"/>
<path style="fill:#68b559; stroke:none;" d="M148 451C149.58 450.316 149.777 450.195 151 449C149.42 449.684 149.223 449.805 148 451z"/>
<path style="fill:#a0d197; stroke:none;" d="M141 450L142 451L141 450z"/>
<path style="fill:#b1d9aa; stroke:none;" d="M147 450L148 451L147 450z"/>
<path style="fill:#86c47a; stroke:none;" d="M142.667 451.333C142.222 451.778 143.278 451.722 143.333 451.667C143.778 451.222 142.722 451.278 142.667 451.333z"/>
<path style="fill:#b6dcaf; stroke:none;" d="M144.667 451.333C144.222 451.778 145.278 451.722 145.333 451.667C145.778 451.222 144.722 451.278 144.667 451.333z"/>
</svg>
